<svg width="32" height="33" viewBox="0 0 32 33" fill="none" xmlns="http://www.w3.org/2000/svg">
<g clip-path="url(#clip0_31_251)">
<path d="M16 3.33698C8.64 3.33698 2.66666 9.31031 2.66666 16.6703C2.66666 24.0303 8.64 30.0036 16 30.0036C23.36 30.0036 29.3333 24.0303 29.3333 16.6703C29.3333 9.31031 23.36 3.33698 16 3.33698ZM16 7.33697C18.2133 7.33697 20 9.12364 20 11.337C20 13.5503 18.2133 15.337 16 15.337C13.7867 15.337 12 13.5503 12 11.337C12 9.12364 13.7867 7.33697 16 7.33697ZM16 26.2703C12.6667 26.2703 9.72 24.5636 8 21.977C8.04 19.3236 13.3333 17.8703 16 17.8703C18.6533 17.8703 23.96 19.3236 24 21.977C22.28 24.5636 19.3333 26.2703 16 26.2703Z" fill="black"/>
</g>
<defs>
<clipPath id="clip0_31_251">
<rect width="32" height="32" fill="white" transform="translate(0 0.670288)"/>
</clipPath>
</defs>
</svg>
