<svg width="41" height="40" viewBox="0 0 41 40" fill="none" xmlns="http://www.w3.org/2000/svg">
<g clip-path="url(#clip0_49_277)">
<path d="M15.5 10H12.5V17H15.5V10Z" fill="black"/>
<path d="M22 10H19V17H22V10Z" fill="black"/>
<path d="M30.5 19H10.5V22H30.5V19Z" fill="black"/>
<path d="M28.5 10H25.5V17H28.5V10Z" fill="black"/>
<path d="M20.5 1L10.5 6V8H30.5V6L20.5 1Z" fill="black"/>
</g>
<path d="M0.154297 39L2.7943 32.07H3.5643L6.2043 39H5.2693L4.6093 37.295H1.7493L1.0893 39H0.154297ZM2.0243 36.525H4.3343L3.1793 33.5L2.0243 36.525ZM10.2171 37.24H11.0421C10.8111 38.241 9.99715 39.055 8.89715 39.055C7.62115 39.055 6.58715 38.01 6.58715 36.525C6.58715 35.04 7.62115 33.995 8.89715 33.995C9.99715 33.995 10.8111 34.809 11.0421 35.81H10.2171C10.0411 35.26 9.54615 34.765 8.89715 34.765C8.12715 34.765 7.41215 35.469 7.41215 36.525C7.41215 37.581 8.12715 38.285 8.89715 38.285C9.54615 38.285 10.0411 37.79 10.2171 37.24ZM15.3841 37.24H16.2091C15.9781 38.241 15.1641 39.055 14.0641 39.055C12.7881 39.055 11.7541 38.01 11.7541 36.525C11.7541 35.04 12.7881 33.995 14.0641 33.995C15.1641 33.995 15.9781 34.809 16.2091 35.81H15.3841C15.2081 35.26 14.7131 34.765 14.0641 34.765C13.2941 34.765 12.5791 35.469 12.5791 36.525C12.5791 37.581 13.2941 38.285 14.0641 38.285C14.7131 38.285 15.2081 37.79 15.3841 37.24ZM19.2311 38.285C19.9901 38.285 20.7161 37.581 20.7161 36.525C20.7161 35.469 19.9901 34.765 19.2311 34.765C18.4611 34.765 17.7461 35.469 17.7461 36.525C17.7461 37.581 18.4611 38.285 19.2311 38.285ZM19.2311 39.055C17.9551 39.055 16.9211 38.01 16.9211 36.525C16.9211 35.04 17.9551 33.995 19.2311 33.995C20.5071 33.995 21.5411 35.04 21.5411 36.525C21.5411 38.01 20.5071 39.055 19.2311 39.055ZM22.6437 36.91V34.05H23.4687V36.91C23.4687 37.735 24.0077 38.285 24.6787 38.285C25.4597 38.285 25.9987 37.746 25.9987 36.91V34.05H26.8237V39H26.2187L25.9987 38.45C25.8997 38.571 25.7787 38.67 25.6357 38.758C25.3827 38.923 25.0417 39.055 24.5687 39.055C23.5237 39.055 22.6437 38.175 22.6437 36.91ZM28.2511 39V34.05H28.8561L29.0761 34.6C29.1751 34.49 29.2961 34.391 29.4391 34.303C29.6921 34.138 30.0331 33.995 30.5061 33.995C31.5511 33.995 32.4311 34.875 32.4311 36.14V39H31.6061V36.14C31.6061 35.315 31.0451 34.765 30.3961 34.765C29.6151 34.765 29.0761 35.304 29.0761 36.14V39H28.2511ZM34.1898 37.405V34.82H33.3098V34.05H33.6948C34.1018 34.05 34.2998 33.852 34.2998 33.445V32.73H35.0148V34.05H36.1148V34.82H35.0148V37.405C35.0148 37.966 35.3448 38.285 35.8398 38.285C35.9168 38.285 35.9828 38.274 36.0378 38.263L36.1148 38.23V38.945C36.0818 38.967 36.0378 38.989 35.9938 39C35.8948 39.033 35.7738 39.055 35.6198 39.055C34.8608 39.055 34.1898 38.395 34.1898 37.405ZM36.8909 37.515H37.7159C37.7709 37.955 38.0899 38.285 38.7059 38.285C39.2669 38.285 39.5859 37.955 39.5859 37.57C39.5859 36.459 37.0009 37.306 37.0009 35.425C37.0009 34.666 37.6609 33.995 38.6509 33.995C39.7069 33.995 40.3009 34.6 40.3559 35.48H39.5309C39.4759 35.04 39.2119 34.765 38.6509 34.765C38.1559 34.765 37.8259 35.084 37.8259 35.425C37.8259 36.536 40.4109 35.7 40.4109 37.57C40.4109 38.395 39.7509 39.055 38.7059 39.055C37.6059 39.055 36.9459 38.395 36.8909 37.515Z" fill="black"/>
<defs>
<clipPath id="clip0_49_277">
<rect width="24" height="24" fill="white" transform="translate(8.5)"/>
</clipPath>
</defs>
</svg>
