<svg width="75" height="74" viewBox="0 0 75 74" fill="none" xmlns="http://www.w3.org/2000/svg">
<g clip-path="url(#clip0_535_761)">
<path d="M47.6131 16.4644H27.4038C26.9433 16.465 26.5018 16.6482 26.1761 16.9738C25.8505 17.2995 25.6673 17.741 25.6667 18.2015V63.1167L25.4351 63.1874L20.4775 64.7056C20.2425 64.7773 19.9887 64.7527 19.7719 64.6375C19.555 64.5222 19.3927 64.3255 19.3206 64.0907L4.57387 15.9213C4.50211 15.6863 4.52657 15.4325 4.64188 15.2155C4.75718 14.9986 4.95391 14.8363 5.18881 14.7644L12.8285 12.4251L34.9764 5.64583L42.6161 3.30656C42.7323 3.27078 42.8545 3.25827 42.9756 3.26976C43.0967 3.28125 43.2143 3.31651 43.3218 3.37352C43.4293 3.43053 43.5244 3.50817 43.6019 3.602C43.6793 3.69582 43.7374 3.804 43.773 3.92033L47.5424 16.2328L47.6131 16.4644Z" fill="#F2F2F2"/>
<path d="M52.023 16.233L47.4799 1.39362C47.4043 1.14637 47.2808 0.916435 47.1163 0.716957C46.9518 0.517478 46.7496 0.352367 46.5213 0.231055C46.293 0.109744 46.043 0.0346097 45.7856 0.00994897C45.5283 -0.0147117 45.2686 0.0115844 45.0214 0.0873319L34.2804 3.37506L12.1337 10.1555L1.39273 13.4444C0.89376 13.5976 0.475966 13.9425 0.231053 14.4035C-0.0138595 14.8644 -0.0658825 15.4037 0.0864059 15.9029L15.6136 66.6177C15.7374 67.0207 15.987 67.3735 16.3259 67.6242C16.6648 67.875 17.0751 68.0105 17.4967 68.0109C17.6918 68.011 17.8858 67.9817 18.0722 67.924L25.4351 65.6704L25.6668 65.5986V65.3566L25.4351 65.4273L18.0039 67.7028C17.5635 67.8371 17.0878 67.7912 16.6811 67.5752C16.2745 67.3592 15.9702 66.9907 15.8349 66.5506L0.3088 15.8346C0.241759 15.6165 0.218394 15.3874 0.240041 15.1603C0.261688 14.9331 0.32792 14.7125 0.43495 14.511C0.54198 14.3096 0.687705 14.1312 0.863776 13.9861C1.03985 13.841 1.24281 13.7321 1.46103 13.6656L12.202 10.3767L34.3487 3.59741L45.0897 0.308523C45.2552 0.258008 45.4273 0.232252 45.6004 0.232091C45.9718 0.232925 46.3332 0.352663 46.6316 0.573767C46.93 0.794871 47.1498 1.10572 47.2588 1.46079L51.7809 16.233L51.8528 16.4646H52.0936L52.023 16.233Z" fill="#3F3D56"/>
<path d="M14.2072 14.8022C13.984 14.802 13.7667 14.7304 13.5872 14.5977C13.4077 14.465 13.2755 14.2783 13.2099 14.0649L11.7183 9.19275C11.6782 9.06188 11.6643 8.92439 11.6774 8.78814C11.6904 8.65189 11.7302 8.51955 11.7944 8.39867C11.8586 8.2778 11.946 8.17075 12.0516 8.08366C12.1572 7.99656 12.2789 7.93112 12.4098 7.89107L32.7845 1.65334C33.0489 1.57268 33.3344 1.60019 33.5784 1.72982C33.8225 1.85945 34.0051 2.08062 34.0863 2.34478L35.5779 7.21699C35.6585 7.4813 35.631 7.76679 35.5014 8.01083C35.3717 8.25487 35.1506 8.43753 34.8865 8.51873L14.5117 14.7565C14.413 14.7867 14.3104 14.8022 14.2072 14.8022Z" fill="#3398FF"/>
<path d="M22.0209 5.20596C23.3 5.20596 24.337 4.169 24.337 2.88985C24.337 1.61069 23.3 0.57373 22.0209 0.57373C20.7417 0.57373 19.7048 1.61069 19.7048 2.88985C19.7048 4.169 20.7417 5.20596 22.0209 5.20596Z" fill="#6C63FF"/>
<path d="M22.0209 4.35661C22.8309 4.35661 23.4875 3.69998 23.4875 2.88998C23.4875 2.07998 22.8309 1.42334 22.0209 1.42334C21.2109 1.42334 20.5542 2.07998 20.5542 2.88998C20.5542 3.69998 21.2109 4.35661 22.0209 4.35661Z" fill="white"/>
<path d="M69.7888 67.4189H30.6464C30.3855 67.4186 30.1353 67.3147 29.9507 67.1302C29.7662 66.9457 29.6624 66.6955 29.6621 66.4345V19.5332C29.6624 19.2722 29.7662 19.022 29.9507 18.8375C30.1352 18.6529 30.3855 18.5491 30.6464 18.5488H69.7888C70.0497 18.5491 70.2999 18.6529 70.4845 18.8375C70.669 19.022 70.7728 19.2722 70.7731 19.5332V66.4345C70.7728 66.6955 70.669 66.9457 70.4845 67.1302C70.2999 67.3147 70.0497 67.4185 69.7888 67.4189Z" fill="#E6E6E6"/>
<path d="M51.7809 16.2329H27.4038C26.8819 16.2336 26.3816 16.4413 26.0126 16.8103C25.6435 17.1794 25.4359 17.6797 25.4351 18.2016V65.4272L25.6667 65.3566V18.2016C25.6673 17.7411 25.8505 17.2996 26.1761 16.9739C26.5018 16.6483 26.9433 16.4651 27.4038 16.4645H51.8528L51.7809 16.2329ZM73.0313 16.2329H27.4038C26.8819 16.2336 26.3816 16.4413 26.0126 16.8103C25.6435 17.1794 25.4359 17.6797 25.4351 18.2016V71.2406C25.4359 71.7625 25.6435 72.2629 26.0126 72.6319C26.3816 73.0009 26.8819 73.2086 27.4038 73.2093H73.0313C73.5532 73.2086 74.0535 73.0009 74.4226 72.6319C74.7916 72.2629 74.9993 71.7625 75 71.2406V18.2016C74.9993 17.6797 74.7916 17.1794 74.4226 16.8103C74.0535 16.4413 73.5532 16.2336 73.0313 16.2329ZM74.7684 71.2406C74.7678 71.7012 74.5846 72.1427 74.259 72.4683C73.9333 72.794 73.4918 72.9772 73.0313 72.9777H27.4038C26.9433 72.9772 26.5018 72.794 26.1761 72.4683C25.8505 72.1427 25.6673 71.7012 25.6667 71.2406V18.2016C25.6673 17.7411 25.8505 17.2996 26.1761 16.9739C26.5018 16.6483 26.9433 16.4651 27.4038 16.4645H73.0313C73.4918 16.4651 73.9333 16.6483 74.259 16.9739C74.5846 17.2996 74.7678 17.7411 74.7684 18.2016V71.2406Z" fill="#3F3D56"/>
<path d="M60.8717 21.3284H39.5635C39.2871 21.3281 39.0222 21.2182 38.8268 21.0228C38.6314 20.8274 38.5215 20.5625 38.5212 20.2861V15.1907C38.5215 14.9144 38.6314 14.6494 38.8268 14.454C39.0222 14.2587 39.2871 14.1487 39.5635 14.1484H60.8717C61.148 14.1487 61.413 14.2587 61.6084 14.454C61.8037 14.6494 61.9137 14.9144 61.914 15.1907V20.2861C61.9137 20.5625 61.8038 20.8274 61.6084 21.0228C61.413 21.2182 61.148 21.3281 60.8717 21.3284Z" fill="#3398FF"/>
<path d="M50.2176 14.496C51.4967 14.496 52.5337 13.459 52.5337 12.1799C52.5337 10.9007 51.4967 9.86377 50.2176 9.86377C48.9384 9.86377 47.9015 10.9007 47.9015 12.1799C47.9015 13.459 48.9384 14.496 50.2176 14.496Z" fill="#6C63FF"/>
<path d="M50.2176 13.5905C50.9967 13.5905 51.6283 12.9589 51.6283 12.1798C51.6283 11.4006 50.9967 10.769 50.2176 10.769C49.4384 10.769 48.8068 11.4006 48.8068 12.1798C48.8068 12.9589 49.4384 13.5905 50.2176 13.5905Z" fill="white"/>
</g>
<defs>
<clipPath id="clip0_535_761">
<rect width="75" height="73.2094" fill="white"/>
</clipPath>
</defs>
</svg>