<svg width="26" height="40" viewBox="0 0 26 40" fill="none" xmlns="http://www.w3.org/2000/svg">
<g clip-path="url(#clip0_49_270)">
<path d="M15.2334 6L14.8334 4H5.83337V21H7.83337V14H13.4334L13.8334 16H20.8334V6H15.2334Z" fill="black"/>
</g>
<path d="M6.51246 39L6.29246 38.175C6.12746 38.34 5.95146 38.483 5.74246 38.615C5.37946 38.835 4.86246 39.055 4.20246 39.055C2.49746 39.055 0.957456 37.515 0.957456 35.535C0.957456 33.555 2.49746 32.015 4.20246 32.015C5.74246 32.015 6.67746 32.95 7.11746 34.27H6.18246C5.90746 33.39 5.30246 32.785 4.20246 32.785C2.99246 32.785 1.83746 33.94 1.83746 35.535C1.83746 37.13 2.99246 38.285 4.20246 38.285C5.30246 38.285 6.29246 37.295 6.29246 36.305H4.25746V35.535H7.17246V39H6.51246ZM10.6353 38.285C11.3943 38.285 12.1203 37.581 12.1203 36.525C12.1203 35.469 11.3943 34.765 10.6353 34.765C9.86531 34.765 9.15031 35.469 9.15031 36.525C9.15031 37.581 9.86531 38.285 10.6353 38.285ZM10.6353 39.055C9.35931 39.055 8.32531 38.01 8.32531 36.525C8.32531 35.04 9.35931 33.995 10.6353 33.995C11.9113 33.995 12.9453 35.04 12.9453 36.525C12.9453 38.01 11.9113 39.055 10.6353 39.055ZM17.1829 39L16.9629 38.45C16.8529 38.571 16.7319 38.67 16.5889 38.758C16.3359 38.923 15.9729 39.055 15.4779 39.055C14.4879 39.055 13.8279 38.395 13.8279 37.57C13.8279 36.635 14.4879 35.975 16.9629 35.975V35.7C16.9629 35.205 16.5339 34.765 15.9179 34.765C15.3019 34.765 15.0489 35.04 14.9279 35.48H14.0479C14.1689 34.655 14.8179 33.995 15.9179 33.995C17.0179 33.995 17.7879 34.776 17.7879 35.7V39H17.1829ZM16.9629 37.13V36.745C14.9829 36.745 14.6529 37.075 14.6529 37.625C14.6529 37.966 14.9829 38.285 15.4779 38.285C16.3579 38.285 16.9629 37.68 16.9629 37.13ZM19.2162 39V32.07H20.0412V39H19.2162ZM21.1944 37.515H22.0194C22.0744 37.955 22.3934 38.285 23.0094 38.285C23.5704 38.285 23.8894 37.955 23.8894 37.57C23.8894 36.459 21.3044 37.306 21.3044 35.425C21.3044 34.666 21.9644 33.995 22.9544 33.995C24.0104 33.995 24.6044 34.6 24.6594 35.48H23.8344C23.7794 35.04 23.5154 34.765 22.9544 34.765C22.4594 34.765 22.1294 35.084 22.1294 35.425C22.1294 36.536 24.7144 35.7 24.7144 37.57C24.7144 38.395 24.0544 39.055 23.0094 39.055C21.9094 39.055 21.2494 38.395 21.1944 37.515Z" fill="black"/>
<defs>
<clipPath id="clip0_49_270">
<rect width="24" height="24" fill="white" transform="translate(0.833374)"/>
</clipPath>
</defs>
</svg>
