<svg width="100" height="79" viewBox="0 0 100 79" fill="none" xmlns="http://www.w3.org/2000/svg">
<g clip-path="url(#clip0_238_695)">
<path d="M62.88 72.0106L61.3683 72.0105L60.6492 66.2227L62.8804 66.2228L62.88 72.0106Z" fill="#9E616A"/>
<path d="M63.2657 73.4651L58.3914 73.4649V73.4037C58.3914 72.9043 58.5913 72.4253 58.9471 72.0721C59.3029 71.719 59.7854 71.5205 60.2886 71.5205H60.2887L63.2657 71.5206L63.2657 73.4651Z" fill="#2F2E41"/>
<path d="M57.4547 72.0106L55.943 72.0105L55.2239 66.2227L57.455 66.2228L57.4547 72.0106Z" fill="#9E616A"/>
<path d="M57.8401 73.4651L52.9658 73.4649V73.4037C52.9659 72.9043 53.1657 72.4253 53.5215 72.0721C53.8773 71.719 54.3599 71.5205 54.863 71.5205H54.8632L57.8402 71.5206L57.8401 73.4651Z" fill="#2F2E41"/>
<path d="M39.8488 31.454C39.9696 31.6189 40.1254 31.7556 40.3052 31.8543C40.4849 31.953 40.6843 32.0113 40.8893 32.0253C41.0942 32.0392 41.2997 32.0084 41.4914 31.935C41.683 31.8615 41.8561 31.7473 41.9985 31.6002L44.9897 32.7597L46.1428 31.1272L41.8956 29.5487C41.6309 29.3277 41.2937 29.2107 40.948 29.22C40.6022 29.2293 40.2719 29.3641 40.0196 29.5989C39.7673 29.8338 39.6106 30.1524 39.5791 30.4943C39.5476 30.8362 39.6436 31.1776 39.8488 31.454Z" fill="#9E616A"/>
<path d="M57.4356 41.345L53.4973 42.6201L54.8129 70.3057L57.8524 70.3803L59.4079 50.8561L59.7611 70.3033L63.5193 70.5089L64.9047 41.345H57.4356Z" fill="#2F2E41"/>
<path d="M54.7783 25.0247L64.8861 22.8447L66.0101 31.4841L65.0742 35.612L65.4491 41.8853C65.4491 41.8853 57.4567 45.834 53.4973 42.6201C53.4973 42.6201 56.6797 34.3229 54.835 30.4388L54.7783 25.0247Z" fill="#E4E4E4"/>
<path d="M56.5288 26.2469L54.7782 25.0249C54.7782 25.0249 54.6748 24.8828 53.2161 26.5756C51.7573 28.2684 48.798 30.9611 48.798 30.9611L43.8658 29.1252L42.9673 32.4207L48.6995 35.0723L56.8148 29.6923L56.5288 26.2469Z" fill="#E4E4E4"/>
<path d="M65.4508 45.1238C65.6366 45.0367 65.8008 44.9102 65.932 44.7533C66.0632 44.5963 66.1581 44.4128 66.2101 44.2155C66.2621 44.0182 66.2698 43.812 66.2329 43.6114C66.1959 43.4108 66.115 43.2207 65.996 43.0545L67.7009 40.3533L66.2999 38.9246L63.9463 42.7727C63.6782 42.9897 63.4997 43.2967 63.4444 43.6356C63.3892 43.9745 63.4611 44.3218 63.6465 44.6116C63.832 44.9014 64.1181 45.1136 64.4506 45.208C64.7832 45.3024 65.1391 45.2724 65.4508 45.1238Z" fill="#9E616A"/>
<path d="M63.3096 24.5468L64.8861 22.8449C64.8861 22.8449 66.6427 22.2377 68.0779 25.3754C69.5131 28.5132 71.1161 34.8778 71.1161 34.8778L67.3683 42.0438L64.4577 40.7528L67.3683 34.8272L64.2882 30.439L63.3096 24.5468Z" fill="#E4E4E4"/>
<path d="M60.6363 22.1362C62.2263 21.2735 62.8107 19.2946 61.9415 17.7163C61.0723 16.138 59.0788 15.558 57.4888 16.4207C55.8988 17.2835 55.3145 19.2624 56.1836 20.8407C57.0528 22.4189 59.0463 22.999 60.6363 22.1362Z" fill="#9E616A"/>
<path d="M61.8292 16.3661C61.674 15.7194 61.1308 15.2089 60.506 14.9695C59.8811 14.7302 59.1853 14.7325 58.525 14.8438C57.429 15.0287 56.4056 15.4979 55.3971 15.9623L56.1744 16.3314L55.1018 16.3925L55.9306 16.818C55.7093 16.9852 55.5409 17.2119 55.4455 17.4712C55.3501 17.7306 55.3316 18.0116 55.3922 18.2811C55.4349 18.4574 55.5489 18.6517 55.7315 18.6578C55.9522 18.6652 56.0674 18.4099 56.2219 18.2532C56.4275 18.0449 56.7521 17.9986 57.0432 18.0379C57.3343 18.0771 57.6105 18.1883 57.8977 18.2498C58.2608 18.3249 58.636 18.3208 58.9974 18.2377C59.3588 18.1545 59.6976 17.9944 59.9905 17.7685L61.0241 20.2389C61.0143 20.1457 61.0264 20.0516 61.0594 19.9638C61.0923 19.8761 61.1453 19.797 61.2141 19.7329C61.2829 19.6689 61.3657 19.6214 61.456 19.5943C61.5464 19.5673 61.6418 19.5613 61.7348 19.5768C61.8279 19.5924 61.916 19.6291 61.9924 19.6841C62.0688 19.7391 62.1314 19.8109 62.1752 19.8938C62.2191 19.9768 62.243 20.0686 62.2451 20.1623C62.2473 20.2559 62.2276 20.3488 62.1876 20.4336C62.635 19.7638 62.995 19.0027 63.0073 18.1991C63.0196 17.3954 62.6181 16.5488 61.8831 16.2116" fill="#2F2E41"/>
<path d="M23.8051 66.2704L22.4075 68.4515L23.2215 65.6121C21.5027 63.8319 19.1233 62.5295 19.1233 62.5295C19.1233 62.5295 16.1933 67.3095 16.9819 70.2498C17.7705 73.1901 19.8068 73.7514 21.979 73.1773C24.1512 72.6033 25.6368 71.1113 24.8482 68.171C24.6727 67.5165 24.2914 66.874 23.8051 66.2704Z" fill="#F2F2F2"/>
<path d="M21.9559 68.669L21.9947 68.8139C22.4379 70.5008 22.5042 71.8909 22.1908 72.9649C22.1865 72.9806 22.1813 72.9958 22.177 73.0116L22.1039 72.9902L22.0339 72.9687C22.3889 71.8046 22.2305 70.3336 21.8443 68.8621C21.8324 68.8145 21.8202 68.7663 21.8066 68.7184C21.6376 68.0969 21.4305 67.4778 21.2051 66.8827C21.1881 66.8365 21.1701 66.7898 21.1522 66.7431C20.8506 65.9591 20.521 65.221 20.2157 64.5848C20.1944 64.5398 20.1723 64.4949 20.1503 64.4508C19.6291 63.3761 19.1873 62.6146 19.088 62.4465C19.0763 62.4258 19.0694 62.4145 19.0679 62.4118L19.1313 62.3743L19.1319 62.3734L19.1961 62.3357C19.1976 62.3384 19.2208 62.376 19.2614 62.4467C19.415 62.7104 19.8228 63.4286 20.293 64.3939C20.314 64.4375 20.3361 64.4824 20.3574 64.5274C20.6058 65.0434 20.869 65.6239 21.1194 66.24C21.1826 66.3946 21.243 66.5477 21.3006 66.6992C21.3193 66.7458 21.3373 66.7925 21.3543 66.8387C21.598 67.4819 21.7985 68.092 21.9559 68.669Z" fill="white"/>
<path d="M20.2931 64.394C20.2464 64.4133 20.199 64.4327 20.1505 64.4509C20.0188 64.5005 19.8846 64.5434 19.7484 64.5794C19.1684 64.7335 18.5609 64.7565 17.9707 64.6466C17.9505 64.6927 17.9304 64.7387 17.9097 64.7857C18.5321 64.907 19.1742 64.8855 19.7869 64.7229C19.9322 64.6845 20.0754 64.6384 20.2159 64.585C20.2637 64.567 20.3111 64.5475 20.3576 64.5276C20.7421 64.365 21.0995 64.1454 21.4175 63.8763C21.3759 63.8451 21.3351 63.8144 21.2953 63.7842C20.9933 64.0353 20.6556 64.2408 20.2931 64.394Z" fill="white"/>
<path d="M21.3007 66.6992C21.2516 66.7153 21.2021 66.7299 21.1522 66.7431C21.1372 66.7478 21.1213 66.752 21.1061 66.756C20.4774 66.9222 19.8175 66.935 19.1827 66.7933C18.5479 66.6516 17.957 66.3596 17.4604 65.9423C17.4429 65.9923 17.4253 66.0422 17.4087 66.0927C17.9221 66.5121 18.5287 66.8041 19.1784 66.9444C19.8281 67.0847 20.5021 67.0693 21.1446 66.8995C21.1649 66.8942 21.1851 66.8888 21.2051 66.8828C21.2555 66.8687 21.305 66.8541 21.3543 66.8387C22.1156 66.5955 22.7901 66.1399 23.2973 65.5262C23.2628 65.49 23.2284 65.4538 23.1931 65.4177C22.7014 66.0186 22.0437 66.464 21.3007 66.6992Z" fill="white"/>
<path d="M21.9561 68.6691C21.9066 68.6868 21.8568 68.703 21.8068 68.7186C21.7532 68.735 21.6993 68.7508 21.6451 68.7651C20.8 68.9874 19.9051 68.932 19.0943 68.6072C18.2836 68.2824 17.6006 67.7056 17.1477 66.9633C17.1308 67.03 17.1136 67.096 17.0981 67.1623C17.5806 67.8948 18.2833 68.4578 19.1065 68.7713C19.9296 69.0848 20.8314 69.1329 21.6836 68.9086C21.7378 68.8943 21.7918 68.8792 21.8446 68.8622C21.8955 68.8472 21.9453 68.831 21.995 68.814C22.9956 68.4646 23.8252 67.7507 24.3155 66.817C24.2861 66.7679 24.2547 66.7201 24.2231 66.6716C23.7579 67.6048 22.9447 68.3212 21.9561 68.6691Z" fill="white"/>
<path d="M78.3207 66.4981L76.9434 68.6475L77.7456 65.8493C76.0518 64.0949 73.7069 62.8115 73.7069 62.8115C73.7069 62.8115 70.8195 67.522 71.5967 70.4196C72.3738 73.3172 74.3805 73.8703 76.5212 73.3046C78.6618 72.7389 80.1258 71.2686 79.3487 68.371C79.1757 67.7261 78.7999 67.0929 78.3207 66.4981Z" fill="#F2F2F2"/>
<path d="M76.4984 68.8616L76.5367 69.0044C76.9734 70.6669 77.0387 72.0368 76.7299 73.0951C76.7257 73.1106 76.7205 73.1256 76.7163 73.1411L76.6443 73.12L76.5753 73.0989C76.9251 71.9517 76.769 70.5021 76.3885 69.0519C76.3767 69.0051 76.3647 68.9575 76.3512 68.9103C76.1847 68.2979 75.9806 67.6877 75.7585 67.1013C75.7417 67.0558 75.724 67.0097 75.7064 66.9637C75.4092 66.1912 75.0844 65.4638 74.7835 64.8368C74.7625 64.7924 74.7407 64.7482 74.7191 64.7047C74.2054 63.6456 73.77 62.8952 73.6722 62.7295C73.6606 62.7091 73.6538 62.698 73.6523 62.6954L73.7149 62.6584L73.7154 62.6575L73.7787 62.6204C73.7802 62.623 73.8031 62.6601 73.8431 62.7298C73.9944 62.9896 74.3963 63.6974 74.8597 64.6486C74.8803 64.6916 74.9021 64.7358 74.9232 64.7802C75.1679 65.2888 75.4273 65.8608 75.6741 66.4679C75.7363 66.6203 75.7958 66.7712 75.8527 66.9205C75.8711 66.9663 75.8888 67.0124 75.9055 67.0579C76.1457 67.6918 76.3433 68.293 76.4984 68.8616Z" fill="white"/>
<path d="M74.8596 64.6486C74.8136 64.6675 74.7668 64.6867 74.719 64.7046C74.5892 64.7536 74.457 64.7958 74.3228 64.8313C73.7511 64.9832 73.1525 65.0058 72.5709 64.8975C72.551 64.9429 72.5311 64.9883 72.5107 65.0346C73.1241 65.1541 73.7569 65.133 74.3607 64.9727C74.5039 64.9348 74.6451 64.8895 74.7835 64.8368C74.8306 64.819 74.8773 64.7999 74.9231 64.7802C75.302 64.62 75.6542 64.4036 75.9677 64.1384C75.9266 64.1076 75.8864 64.0774 75.8472 64.0476C75.5496 64.2951 75.2168 64.4976 74.8596 64.6486Z" fill="white"/>
<path d="M75.8525 66.9204C75.8041 66.9362 75.7554 66.9506 75.7062 66.9636C75.6914 66.9682 75.6758 66.9724 75.6608 66.9763C75.0412 67.1401 74.3909 67.1527 73.7653 67.0131C73.1397 66.8734 72.5574 66.5857 72.0681 66.1744C72.0508 66.2237 72.0335 66.2729 72.0171 66.3227C72.523 66.736 73.1209 67.0237 73.7611 67.1619C74.4013 67.3002 75.0656 67.285 75.6987 67.1177C75.7187 67.1125 75.7386 67.1072 75.7584 67.1012C75.8081 67.0873 75.8568 67.0729 75.9054 67.0578C76.6556 66.8182 77.3203 66.3691 77.8202 65.7644C77.7862 65.7287 77.7522 65.693 77.7175 65.6575C77.2329 66.2496 76.5847 66.6885 75.8525 66.9204Z" fill="white"/>
<path d="M76.4983 68.8615C76.4496 68.879 76.4005 68.895 76.3512 68.9103C76.2983 68.9265 76.2453 68.942 76.1919 68.9561C75.359 69.1752 74.4771 69.1206 73.6781 68.8005C72.8791 68.4804 72.2061 67.912 71.7598 67.1805C71.7431 67.2462 71.7262 67.3112 71.7109 67.3766C72.1864 68.0985 72.8789 68.6533 73.6901 68.9623C74.5013 69.2712 75.3899 69.3186 76.2298 69.0976C76.2832 69.0834 76.3364 69.0686 76.3884 69.0519C76.4386 69.0371 76.4877 69.0211 76.5366 69.0044C77.5228 68.66 78.3402 67.9565 78.8235 67.0363C78.7945 66.988 78.7635 66.9409 78.7324 66.8931C78.2739 67.8126 77.4725 68.5187 76.4983 68.8615Z" fill="white"/>
<path d="M49.8155 13.0981C49.8155 7.95673 46.2045 3.78882 41.7502 3.78882C37.2958 3.78882 33.6848 7.95673 33.6848 13.0981C33.6848 17.7611 36.6552 21.6232 40.531 22.3016V23.1789C40.531 23.3446 40.5973 23.5035 40.7154 23.6207C40.8334 23.7379 40.9935 23.8038 41.1605 23.8038H42.3398C42.5068 23.8038 42.6669 23.7379 42.785 23.6207C42.903 23.5035 42.9693 23.3446 42.9693 23.1789V22.3016C46.8452 21.6232 49.8155 17.7611 49.8155 13.0981Z" fill="#3398FF"/>
<path d="M40.3371 23.052C40.5894 22.8168 40.8901 22.6385 41.2184 22.5295C41.5467 22.4205 41.8949 22.3833 42.2391 22.4205C42.5859 22.4604 42.9187 22.5797 43.2112 22.769C43.5036 22.9583 43.7478 23.2125 43.9245 23.5115C44.1012 23.8016 44.2122 24.1263 44.2498 24.4633C44.2874 24.8002 44.2507 25.1412 44.1422 25.4627C43.9302 26.1037 43.4796 26.6372 43.0176 27.1181C42.5329 27.6225 42.0058 28.0877 41.5502 28.6194C40.7988 29.5012 40.2742 30.5509 40.0212 31.6782C39.7682 32.8055 39.7945 33.977 40.0978 35.092C40.4976 36.5053 41.3231 37.7636 42.4636 38.698C42.6084 38.8155 42.7575 38.9274 42.911 39.0337C43.0885 39.157 43.2567 38.868 43.0806 38.7456C41.8424 37.8761 40.9273 36.6258 40.4768 35.1882C40.1353 34.0678 40.0916 32.8788 40.35 31.7368C40.6084 30.5947 41.1601 29.5385 41.9514 28.6707C42.432 28.1439 42.9702 27.6724 43.4507 27.1455C43.911 26.6407 44.3306 26.0712 44.5104 25.4043C44.6014 25.0652 44.624 24.7116 44.5768 24.3639C44.5296 24.0161 44.4136 23.6811 44.2354 23.378C44.0581 23.0682 43.8181 22.7981 43.5307 22.5846C43.2433 22.3711 42.9145 22.2188 42.565 22.1373C41.862 21.9856 41.1271 22.112 40.5163 22.4894C40.3667 22.5842 40.227 22.6936 40.0994 22.8161C39.9434 22.9653 40.1812 23.201 40.3371 23.052Z" fill="#3F3D56"/>
<path d="M18.7359 9.19982C16.2681 3.56847 10.3124 0.711161 5.43356 2.81786C0.554666 4.92455 -1.39988 11.1975 1.06792 16.8288C3.30611 21.9362 8.41331 24.7616 12.9841 23.6715L13.4052 24.6324C13.4848 24.814 13.6337 24.9567 13.8193 25.0292C14.0048 25.1017 14.2118 25.0981 14.3947 25.0192L15.6864 24.4614C15.8693 24.3824 16.013 24.2346 16.0861 24.0504C16.1592 23.8662 16.1555 23.6607 16.076 23.4792L15.6549 22.5183C19.5745 19.9422 20.9741 14.3072 18.7359 9.19982Z" fill="#3398FF"/>
<path d="M13.1072 24.5566C13.2675 24.19 13.5037 23.8608 13.8003 23.5905C14.097 23.3202 14.4476 23.1148 14.8293 22.9876C15.2042 22.8623 15.6021 22.8198 15.9952 22.8632C16.3884 22.9065 16.7672 23.0347 17.1052 23.2386C17.4534 23.4433 17.7537 23.7195 17.9859 24.0485C18.2182 24.3775 18.3771 24.7519 18.4521 25.1467C18.6243 26.0617 18.3448 26.9937 18.0273 27.8456C17.6944 28.7385 17.2795 29.6058 17.048 30.5331C16.7259 31.8365 16.7194 33.197 17.029 34.5033C17.3387 35.8096 17.9557 37.0246 18.8295 38.0486C19.93 39.3145 21.3795 40.2333 22.9994 40.692C23.1981 40.7476 23.3989 40.795 23.6012 40.8357C23.8124 40.8781 23.9027 40.5567 23.6905 40.514C22.0051 40.1696 20.4691 39.3139 19.295 38.0651C18.0504 36.7294 17.2985 35.0144 17.162 33.2C17.089 32.2807 17.1738 31.3558 17.4131 30.4647C17.6684 29.5245 18.1006 28.6441 18.4265 27.728C18.7374 26.8538 18.9578 25.9151 18.7624 24.9899C18.5828 24.1754 18.0849 23.4649 17.378 23.0145C17.0392 22.7928 16.6593 22.6401 16.2606 22.5653C15.8618 22.4905 15.452 22.4951 15.0551 22.5789C14.2445 22.7612 13.5342 23.2432 13.0689 23.9269C12.9557 24.0973 12.86 24.2786 12.7831 24.468C12.7005 24.6661 13.0255 24.7525 13.1072 24.5566Z" fill="#3F3D56"/>
<path d="M87.6717 77.2186L89.4832 77.2185L90.3448 70.283L87.6714 70.2831L87.6717 77.2186Z" fill="#FFB6B6"/>
<path d="M87.2097 76.6315L90.7771 76.6313H90.7772C91.3801 76.6314 91.9583 76.8691 92.3847 77.2923C92.811 77.7155 93.0505 78.2895 93.0506 78.888V78.9613L87.2098 78.9615L87.2097 76.6315Z" fill="#2F2E41"/>
<path d="M76.9502 75.6895L78.6773 76.2317L81.6063 69.8773L79.0573 69.0769L76.9502 75.6895Z" fill="#FFB6B6"/>
<path d="M76.6879 74.9915L80.0891 76.0594L80.0892 76.0594C80.6641 76.2399 81.1431 76.6398 81.421 77.1709C81.6989 77.702 81.7529 78.3209 81.5711 78.8916L81.5488 78.9615L75.98 77.213L76.6879 74.9915Z" fill="#2F2E41"/>
<path d="M81.0289 45.5435L80.0237 48.3576L79.9952 63.5502L77.1445 73.952L80.6438 74.9214L84.5092 65.1135L85.749 56.4986L87.3828 65.1635L87.1579 75.4624H90.8294L91.1065 59.5918C91.1843 55.1346 90.3986 50.7041 88.7922 46.5413L81.0289 45.5435Z" fill="#2F2E41"/>
<path d="M79.8315 34.144H85.7659L88.2456 36.6054L88.9863 46.7797L80.0235 48.2114L77.1443 38.5037L78.7122 34.378L79.8315 34.144Z" fill="#E4E4E4"/>
<path d="M77.6975 38.6007L68.5606 35.1883L68.3228 33.7777L74.085 28.9377L76.0029 30.3657L72.5267 34.144L78.7124 34.3779L77.6975 38.6007Z" fill="#E4E4E4"/>
<path d="M75.1931 30.9174C76.0091 30.9174 76.6706 30.2608 76.6706 29.4508C76.6706 28.6408 76.0091 27.9841 75.1931 27.9841C74.3771 27.9841 73.7156 28.6408 73.7156 29.4508C73.7156 30.2608 74.3771 30.9174 75.1931 30.9174Z" fill="#FFB6B6"/>
<path d="M78.6197 31.2984L79.2874 28.3099C79.4044 27.7836 79.6248 27.2853 79.936 26.8436C80.2471 26.4019 80.6429 26.0254 81.1008 25.7356C81.5586 25.4458 82.0695 25.2484 82.6042 25.1547C83.1389 25.061 83.687 25.0729 84.2171 25.1896C84.7472 25.3063 85.249 25.5255 85.6937 25.8348C86.1384 26.1441 86.5173 26.5374 86.8088 26.9921C87.1003 27.4468 87.2986 27.9542 87.3925 28.485C87.4864 29.0159 87.4739 29.5599 87.3558 30.086L86.6882 33.0745C86.6561 33.2171 86.5684 33.3412 86.4443 33.4197C86.3202 33.4982 86.1698 33.5246 86.0261 33.4931L79.0415 31.9556C78.8978 31.9238 78.7728 31.8367 78.6937 31.7135C78.6146 31.5903 78.588 31.441 78.6197 31.2984Z" fill="#2F2E41"/>
<path d="M83.2195 32.4249C84.8266 31.9626 85.752 30.2947 85.2863 28.6994C84.8206 27.1042 83.1403 26.1857 81.5332 26.6479C79.9261 27.1101 79.0008 28.7781 79.4665 30.3734C79.9321 31.9686 81.6124 32.8871 83.2195 32.4249Z" fill="#FFB6B6"/>
<path d="M78.2797 28.3389C78.4683 27.4992 78.9847 26.7681 79.7156 26.306C80.4466 25.8438 81.3324 25.6883 82.1787 25.8736L82.7808 26.0062C83.6267 26.1934 84.3632 26.706 84.8288 27.4316C85.2944 28.1571 85.451 29.0364 85.2643 29.8764L85.251 29.9362L83.9785 29.6561L83.814 28.3542L83.4577 29.5414L82.8001 29.3967L82.7171 28.7398L82.5373 29.3388L78.2664 28.3986L78.2797 28.3389Z" fill="#2F2E41"/>
<path d="M81.3386 32.8139C81.2968 32.7204 81.2824 32.6172 81.2971 32.516C81.3119 32.4148 81.3551 32.3198 81.4218 32.2419C82.3291 31.1776 83.7198 29.1482 82.8406 27.5144L82.7774 27.397L86.2201 28.1548L85.0738 33.2854L81.8241 33.1447C81.7912 33.1432 81.7585 33.139 81.7263 33.1319C81.641 33.1132 81.5613 33.0745 81.4939 33.0192C81.4265 32.9639 81.3732 32.8936 81.3386 32.8139Z" fill="#2F2E41"/>
<path d="M85.53 34.2056L95.195 35.5697L95.7355 36.8956L91.1678 42.8608L88.9836 41.8799L91.5515 37.4431L85.4619 38.5465L85.53 34.2056Z" fill="#E4E4E4"/>
<path d="M100 14.866C100 8.72492 95.687 3.74658 90.3665 3.74658C85.046 3.74658 80.7329 8.72492 80.7329 14.866C80.7329 20.4357 84.2808 25.0488 88.9103 25.859V26.9069C88.9103 27.1049 88.9895 27.2947 89.1305 27.4347C89.2715 27.5747 89.4628 27.6533 89.6622 27.6533H91.0709C91.2703 27.6533 91.4615 27.5747 91.6025 27.4347C91.7435 27.2947 91.8228 27.1049 91.8228 26.9069V25.859C96.4522 25.0488 100 20.4357 100 14.866Z" fill="#3398FF"/>
<path d="M88.6554 26.7324C88.9612 26.4471 89.3259 26.2311 89.7242 26.0994C90.1224 25.9677 90.5447 25.9235 90.9619 25.9698C91.3717 26.0178 91.7651 26.1576 92.1124 26.3789C92.4597 26.6001 92.7517 26.8969 92.9664 27.2467C93.1848 27.592 93.3253 27.9801 93.3782 28.3844C93.4311 28.7887 93.3951 29.1996 93.2727 29.5888C93.035 30.3527 92.5133 30.9924 91.9695 31.5657C91.3894 32.1773 90.7539 32.7366 90.1992 33.3721C89.2951 34.4151 88.6597 35.6605 88.3476 37.0012C88.0356 38.3419 88.0562 39.7377 88.4078 41.0688C88.8781 42.7795 89.872 44.3031 91.252 45.4291C91.4196 45.5646 91.592 45.6937 91.7694 45.8166C91.947 45.9398 92.1151 45.6508 91.939 45.5285C90.4611 44.4916 89.3665 43.0023 88.823 41.2888C88.4102 39.9513 88.3517 38.5307 88.6531 37.1642C88.9545 35.7977 89.6057 34.5315 90.5438 33.4876C91.1139 32.8558 91.7561 32.293 92.3327 31.6673C92.8849 31.0682 93.3919 30.3955 93.6187 29.6038C93.7329 29.2039 93.7661 28.7856 93.7163 28.3729C93.6666 27.9602 93.5349 27.5614 93.3289 27.1996C93.1237 26.8296 92.8437 26.5056 92.5065 26.248C92.1693 25.9905 91.7821 25.8048 91.3692 25.7028C90.5302 25.5113 89.6489 25.6564 88.917 26.1065C88.7376 26.2192 88.5703 26.3499 88.4178 26.4965C88.2619 26.646 88.4997 26.8817 88.6554 26.7324Z" fill="#3F3D56"/>
<path d="M89.8205 44.5573C90.6366 44.5573 91.2981 43.9007 91.2981 43.0907C91.2981 42.2807 90.6366 41.624 89.8205 41.624C89.0045 41.624 88.343 42.2807 88.343 43.0907C88.343 43.9007 89.0045 44.5573 89.8205 44.5573Z" fill="#FFB6B6"/>
<path d="M74.4238 29.8625C74.3463 29.9841 74.1585 29.9664 74.053 29.8904C73.9066 29.7848 73.954 29.5815 74.0548 29.4614C74.3753 29.0795 74.9053 29.4827 74.9767 29.8619C75.0033 30.0468 74.9746 30.2353 74.8943 30.4042C74.8139 30.5731 74.6853 30.7148 74.5245 30.8118C74.1589 31.0269 73.684 30.919 73.3697 30.6616C72.7139 30.1247 72.8925 29.0497 73.6208 28.6612C74.0857 28.4133 74.6733 28.5221 75.1312 28.7298C75.6466 28.9636 76.0899 29.3218 76.5665 29.6205C77.6124 30.2704 78.7955 30.6714 80.0234 30.7922C80.2383 30.814 80.2368 30.4802 80.0234 30.4586C79.3429 30.3888 78.675 30.2291 78.0371 29.9839C77.406 29.73 76.8069 29.4036 76.2523 29.0114C75.691 28.6296 75.1047 28.2586 74.4101 28.1955C74.1298 28.163 73.8459 28.2048 73.5871 28.3165C73.3283 28.4283 73.104 28.6061 72.9369 28.8318C72.7883 29.0338 72.6888 29.2672 72.6462 29.5138C72.6037 29.7603 72.6192 30.0133 72.6916 30.2529C72.7789 30.5034 72.9315 30.7265 73.1339 30.8994C73.3363 31.0724 73.5812 31.1891 73.8438 31.2375C74.0965 31.2849 74.3579 31.2528 74.5914 31.1457C74.8249 31.0387 75.0189 30.8619 75.1463 30.6401C75.402 30.2012 75.3937 29.6117 75.0076 29.2478C74.8969 29.1361 74.7583 29.0556 74.606 29.0145C74.4537 28.9734 74.2932 28.9731 74.1408 29.0138C74.0003 29.0609 73.8768 29.1476 73.7852 29.2633C73.6936 29.379 73.638 29.5187 73.6251 29.6652C73.5879 30.2349 74.4025 30.5198 74.714 30.0308C74.8299 29.8489 74.5392 29.6813 74.4238 29.8625Z" fill="#3F3D56"/>
<path d="M7.19114 47.7898L6.74732 48.3426L5.17749 47.4208L5.62131 46.8679L7.19114 47.7898Z" fill="#E4E4E4"/>
<path d="M8.82932 50.165L9.22138 50.7458L7.57224 51.5601L7.18018 50.9793L8.82932 50.165Z" fill="#E4E4E4"/>
<path d="M10.5365 47.6401L11.3199 47.6676L11.242 49.2948L10.4585 49.2674L10.5365 47.6401Z" fill="#E4E4E4"/>
<path d="M25.6743 3.75687L25.2305 4.30962L23.6606 3.38782L24.1045 2.83496L25.6743 3.75687Z" fill="#E4E4E4"/>
<path d="M27.3122 6.13208L27.7043 6.71285L26.0552 7.52712L25.6631 6.94635L27.3122 6.13208Z" fill="#E4E4E4"/>
<path d="M29.0194 3.60742L29.8028 3.63489L29.7249 5.2621L28.9414 5.23464L29.0194 3.60742Z" fill="#E4E4E4"/>
<path d="M69.2495 9.5391L68.8057 10.0918L67.2358 9.17004L67.6797 8.61719L69.2495 9.5391Z" fill="#E4E4E4"/>
<path d="M70.8877 11.9143L71.2797 12.4951L69.6306 13.3093L69.2385 12.7286L70.8877 11.9143Z" fill="#E4E4E4"/>
<path d="M72.5948 9.3894L73.3783 9.41687L73.3003 11.0441L72.5168 11.0166L72.5948 9.3894Z" fill="#E4E4E4"/>
<path d="M55.9194 1.42191L55.4756 1.97466L53.9058 1.05286L54.3496 0.5L55.9194 1.42191Z" fill="#E4E4E4"/>
<path d="M57.5573 3.79712L57.9494 4.37789L56.3003 5.19216L55.9082 4.61139L57.5573 3.79712Z" fill="#E4E4E4"/>
<path d="M59.2645 1.27222L60.0479 1.29968L59.97 2.9269L59.1865 2.89943L59.2645 1.27222Z" fill="#E4E4E4"/>
<path d="M69.4719 42.9763L69.0281 43.6179L70.5979 44.6879L71.0418 44.0463L69.4719 42.9763Z" fill="#E4E4E4"/>
<path d="M71.0308 47.748L71.4229 48.4221L73.072 47.477L72.68 46.8029L71.0308 47.748Z" fill="#E4E4E4"/>
<path d="M74.3091 45.7611L75.0925 45.793L75.1705 43.9043L74.3871 43.8724L74.3091 45.7611Z" fill="#E4E4E4"/>
<path d="M36.1708 72.0948L37.5279 71.8864L36.5975 61.1228L33.573 61.6788L36.1708 72.0948Z" fill="#FFB6B6"/>
<path d="M35.7559 71.708L38.4287 71.2977C38.8804 71.2284 39.3415 71.34 39.7103 71.6081C40.0791 71.8761 40.3256 72.2786 40.3955 72.727L40.404 72.782L36.0278 73.4537L35.7559 71.708Z" fill="#2F2E41"/>
<path d="M21.9065 71.9614L23.2785 72.0193L24.9474 62.457L21.9228 62.4571L21.9065 71.9614Z" fill="#FFB6B6"/>
<path d="M21.5757 71.5017L24.2779 71.616H24.278C24.7347 71.6353 25.1649 71.8339 25.4741 72.1682C25.7832 72.5024 25.946 72.9448 25.9266 73.3981L25.9242 73.4537L21.5 73.2666L21.5757 71.5017Z" fill="#2F2E41"/>
<path d="M24.6081 40.8069C24.5433 40.7888 24.477 40.7765 24.4101 40.7702L25.2654 33.8205L28.1677 27.7195C28.3503 27.3357 28.3795 26.8975 28.2494 26.4932C28.1192 26.0889 27.8395 25.7486 27.4666 25.541C27.0937 25.3334 26.6553 25.2738 26.2399 25.3744C25.8245 25.475 25.463 25.7283 25.2283 26.083C24.4676 27.2327 23.8922 28.493 23.5228 29.8187L22.3035 34.1949L23.1951 41.6997C23.1609 41.9112 23.189 42.1281 23.276 42.3241C23.3631 42.5201 23.5053 42.687 23.6857 42.8047C23.866 42.9224 24.0768 42.9858 24.2926 42.9874C24.5084 42.989 24.7201 42.9286 24.9022 42.8136C25.0842 42.6985 25.2289 42.5337 25.3188 42.3389C25.4088 42.1442 25.4401 41.9278 25.409 41.7158C25.3779 41.5038 25.2858 41.3052 25.1437 41.144C25.0016 40.9827 24.8156 40.8656 24.6081 40.8069Z" fill="#FFB6B6"/>
<path d="M26.3702 34.4088L22.7034 30.2449L24.5199 26.0038C24.7577 25.4484 25.2049 25.0073 25.7658 24.7746C26.3267 24.5419 26.9571 24.536 27.5223 24.7582C28.0876 24.9804 28.5429 25.4131 28.7912 25.964C29.0396 26.5148 29.0612 27.1402 28.8514 27.7066L26.3702 34.4088Z" fill="#2F2E41"/>
<path d="M32.4654 21.1346C33.3476 19.5327 32.7545 17.5242 31.1407 16.6485C29.5269 15.7728 27.5035 16.3615 26.6213 17.9634C25.7391 19.5654 26.3322 21.5739 27.946 22.4496C29.5598 23.3253 31.5832 22.7366 32.4654 21.1346Z" fill="#FFB6B6"/>
<path d="M30.1003 15.5332H27.9491C26.5388 15.5332 25.3955 16.8099 25.3955 18.3848L25.4951 22.2049C27.0189 22.393 28.5094 22.7887 29.9244 23.3808L30.1252 22.5297L30.5212 23.6506C30.8735 23.82 31.2227 24.0053 31.569 24.2063C31.1649 22.3215 30.9985 20.441 31.276 18.9802H32.0046V18.1887L32.2519 18.9802H33.5729C33.5729 18.5276 33.4831 18.0793 33.3085 17.6611C33.134 17.2429 32.8782 16.8629 32.5558 16.5428C32.2333 16.2227 31.8505 15.9688 31.4292 15.7956C31.0079 15.6224 30.5563 15.5332 30.1003 15.5332Z" fill="#2F2E41"/>
<path d="M37.1147 61.7075L36.803 61.782L36.5414 56.953L34.6371 42.4977L32.4528 36.9936L33.5169 33.1574C33.5169 33.1574 34.7491 30.4888 31.6686 28.4317L29.2042 24.3175C27.5019 23.2126 26.1013 23.9351 25.3547 25.8131C24.7041 27.4494 24.1991 29.5195 24.4994 31.6563C25.1722 36.4427 25.7316 36.9936 25.7316 36.9936C25.7316 36.9936 21.5309 41.6082 22.4271 47.5015L21.9276 62.76L21.4707 62.7414L21.4207 63.9534L25.4126 64.1158L25.4626 62.9039L25.1315 62.8904L26.5718 56.8418L28.7001 48.8358L32.3967 58.6209L33.6401 62.5382L33.2305 62.6361L33.5166 63.8153L37.4008 62.8868L37.1147 61.7075Z" fill="#2F2E41"/>
<path d="M39.858 34.3076C39.8128 34.3571 39.7721 34.4104 39.7365 34.4671L33.8552 30.6023L29.6533 25.299C29.389 24.9653 29.0071 24.7436 28.5846 24.6785C28.162 24.6134 27.7304 24.7098 27.3766 24.9482C27.0229 25.1866 26.7733 25.5493 26.6784 25.9632C26.5835 26.377 26.6502 26.8112 26.865 27.1781C27.5613 28.3673 28.4401 29.4414 29.4698 30.3618L32.8692 33.3999L40.0313 35.9613C40.2067 36.0862 40.4147 36.1581 40.6303 36.1684C40.8458 36.1787 41.0598 36.127 41.2465 36.0194C41.4331 35.9118 41.5844 35.753 41.6823 35.5621C41.7801 35.3711 41.8203 35.1561 41.798 34.9431C41.7756 34.73 41.6917 34.5278 41.5564 34.361C41.421 34.1941 41.24 34.0696 41.035 34.0025C40.8301 33.9353 40.61 33.9284 40.4011 33.9826C40.1923 34.0367 40.0037 34.1496 39.858 34.3076Z" fill="#FFB6B6"/>
<path d="M34.8789 29.884L29.4878 31.2799L26.4771 27.7718C26.0828 27.3124 25.885 26.7183 25.9259 26.1161C25.9668 25.514 26.2432 24.9516 26.696 24.549C27.1488 24.1463 27.7423 23.9352 28.3497 23.9608C28.9571 23.9864 29.5304 24.2467 29.9472 24.686L34.8789 29.884Z" fill="#2F2E41"/>
<path d="M76.6649 73.567H4.15584C4.12047 73.567 4.08654 73.5531 4.06153 73.5283C4.03651 73.5034 4.02246 73.4698 4.02246 73.4346C4.02246 73.3995 4.03651 73.3659 4.06153 73.341C4.08654 73.3162 4.12047 73.3022 4.15584 73.3022H76.6649C76.7003 73.3022 76.7342 73.3162 76.7592 73.341C76.7842 73.3659 76.7983 73.3995 76.7983 73.4346C76.7983 73.4698 76.7842 73.5034 76.7592 73.5283C76.7342 73.5531 76.7003 73.567 76.6649 73.567Z" fill="#CACACA"/>
</g>
<defs>
<clipPath id="clip0_238_695">
<rect width="100" height="78.4615" fill="white" transform="translate(0 0.5)"/>
</clipPath>
</defs>
</svg>
