<svg width="26" height="37" viewBox="0 0 26 37" fill="none" xmlns="http://www.w3.org/2000/svg">
<path d="M10.3884 20.5576V14.0359H15.6058V20.5576C15.6058 21.275 16.1927 21.8619 16.9101 21.8619H20.8231C21.5405 21.8619 22.1275 21.275 22.1275 20.5576V11.4272H24.3448C24.9448 11.4272 25.2318 10.6838 24.7753 10.2925L13.871 0.47079C13.3754 0.0273149 12.6188 0.0273149 12.1232 0.47079L1.21894 10.2925C0.775461 10.6838 1.04937 11.4272 1.64937 11.4272H3.86674V20.5576C3.86674 21.275 4.45369 21.8619 5.17108 21.8619H9.08409C9.80148 21.8619 10.3884 21.275 10.3884 20.5576Z" fill="#323232"/>
<path d="M1.11828 36.8618V29.9318H1.99828V32.9568H5.35328V29.9318H6.23328V36.8618H5.35328V33.7268H1.99828V36.8618H1.11828ZM9.80828 36.1468C10.5673 36.1468 11.2933 35.4428 11.2933 34.3868C11.2933 33.3308 10.5673 32.6268 9.80828 32.6268C9.03828 32.6268 8.32328 33.3308 8.32328 34.3868C8.32328 35.4428 9.03828 36.1468 9.80828 36.1468ZM9.80828 36.9168C8.53228 36.9168 7.49828 35.8718 7.49828 34.3868C7.49828 32.9018 8.53228 31.8568 9.80828 31.8568C11.0843 31.8568 12.1183 32.9018 12.1183 34.3868C12.1183 35.8718 11.0843 36.9168 9.80828 36.9168ZM13.2209 36.8618V31.9118H13.8259L14.0459 32.4618C14.1229 32.3518 14.2219 32.2528 14.3429 32.1648C14.5519 31.9998 14.8269 31.8568 15.2559 31.8568C15.7509 31.8568 16.0919 32.0768 16.3119 32.2968C16.4439 32.4288 16.5539 32.5718 16.6309 32.7368C16.7299 32.5718 16.8399 32.4288 16.9829 32.2968C17.2359 32.0768 17.5879 31.8568 18.1159 31.8568C18.9959 31.8568 19.7659 32.6158 19.7659 33.8918V36.8618H18.9409V33.8918C18.9409 33.0558 18.5119 32.6268 17.9509 32.6268C17.3899 32.6268 16.9059 33.1108 16.9059 33.8918V36.8618H16.0809V33.8918C16.0809 33.0558 15.6519 32.6268 15.0909 32.6268C14.5519 32.6268 14.0459 33.1548 14.0459 33.8918V36.8618H13.2209ZM24.3829 35.5418H25.2629C24.9329 36.2568 24.2729 36.9168 23.1729 36.9168C21.8529 36.9168 20.8079 35.8718 20.8079 34.3868C20.8079 32.9018 21.9189 31.8568 23.1179 31.8568C24.3279 31.8568 25.3729 32.8358 25.3729 34.3318C25.3729 34.4748 25.3509 34.5738 25.3399 34.6508L25.3179 34.7718H21.6879C21.7429 35.4868 22.3919 36.1468 23.1729 36.1468C23.8219 36.1468 24.2179 35.7728 24.3829 35.5418ZM21.6879 34.0568H24.5479C24.4269 33.2318 23.8329 32.6268 23.1179 32.6268C22.4029 32.6268 21.8089 33.2318 21.6879 34.0568Z" fill="black"/>
</svg>
