<svg width="35" height="41" viewBox="0 0 35 41" fill="none" xmlns="http://www.w3.org/2000/svg">
<g clip-path="url(#clip0_49_274)">
<path d="M14.6667 21C14.6667 21.5 15.0667 22 15.6667 22H19.6667C20.2667 22 20.6667 21.5 20.6667 21V20H14.6667V21ZM17.6667 2C13.7667 2 10.6667 5.1 10.6667 9C10.6667 11.4 11.8667 13.5 13.6667 14.7V17C13.6667 17.5 14.0667 18 14.6667 18H20.6667C21.2667 18 21.6667 17.5 21.6667 17V14.7C23.4667 13.4 24.6667 11.3 24.6667 9C24.6667 5.1 21.5667 2 17.6667 2Z" fill="black"/>
</g>
<path d="M1.66534 39V32.07H2.54534V39H1.66534ZM4.14292 39V34.05H4.74792L4.96792 34.6C5.06692 34.49 5.18792 34.391 5.33092 34.303C5.58392 34.138 5.92492 33.995 6.39792 33.995C7.44292 33.995 8.32292 34.875 8.32292 36.14V39H7.49792V36.14C7.49792 35.315 6.93692 34.765 6.28792 34.765C5.50692 34.765 4.96792 35.304 4.96792 36.14V39H4.14292ZM9.36663 37.515H10.1916C10.2466 37.955 10.5656 38.285 11.1816 38.285C11.7426 38.285 12.0616 37.955 12.0616 37.57C12.0616 36.459 9.47663 37.306 9.47663 35.425C9.47663 34.666 10.1366 33.995 11.1266 33.995C12.1826 33.995 12.7766 34.6 12.8316 35.48H12.0066C11.9516 35.04 11.6876 34.765 11.1266 34.765C10.6316 34.765 10.3016 35.084 10.3016 35.425C10.3016 36.536 12.8866 35.7 12.8866 37.57C12.8866 38.395 12.2266 39.055 11.1816 39.055C10.0816 39.055 9.42163 38.395 9.36663 37.515ZM14.0365 39V34.05H14.8615V39H14.0365ZM13.9265 32.653C13.9265 32.345 14.1465 32.125 14.4435 32.125C14.7515 32.125 14.9715 32.345 14.9715 32.653C14.9715 32.95 14.7515 33.17 14.4435 33.17C14.1465 33.17 13.9265 32.95 13.9265 32.653ZM16.2373 39.385H17.0623C17.2273 39.77 17.5573 40.1 18.2723 40.1C19.1083 40.1 19.6473 39.55 19.6473 38.835V38.175C19.5483 38.296 19.4383 38.406 19.3063 38.505C19.0753 38.67 18.7123 38.835 18.2173 38.835C16.9523 38.835 15.9623 37.856 15.9623 36.415C15.9623 34.974 16.9523 33.995 18.2173 33.995C18.7123 33.995 19.0753 34.138 19.3063 34.303C19.4383 34.391 19.5483 34.49 19.6473 34.6L19.8673 34.05H20.4723V38.835C20.4723 39.99 19.5923 40.87 18.2723 40.87C17.1393 40.87 16.4463 40.21 16.2373 39.385ZM18.2723 38.065C19.0973 38.065 19.7573 37.405 19.7573 36.415C19.7573 35.425 19.0973 34.765 18.2723 34.765C17.4473 34.765 16.7873 35.425 16.7873 36.415C16.7873 37.405 17.4473 38.065 18.2723 38.065ZM21.9548 39V32.07H22.7798V34.655C22.8788 34.534 22.9998 34.424 23.1428 34.325C23.3958 34.16 23.7368 33.995 24.2098 33.995C25.2548 33.995 26.1348 34.875 26.1348 36.14V39H25.3098V36.14C25.3098 35.315 24.7488 34.765 24.0998 34.765C23.3188 34.765 22.7798 35.304 22.7798 36.14V39H21.9548ZM27.8922 37.405V34.82H27.0122V34.05H27.3972C27.8042 34.05 28.0022 33.852 28.0022 33.445V32.73H28.7172V34.05H29.8172V34.82H28.7172V37.405C28.7172 37.966 29.0472 38.285 29.5422 38.285C29.6192 38.285 29.6852 38.274 29.7402 38.263L29.8172 38.23V38.945C29.7842 38.967 29.7402 38.989 29.6962 39C29.5972 39.033 29.4762 39.055 29.3222 39.055C28.5632 39.055 27.8922 38.395 27.8922 37.405ZM30.5932 37.515H31.4182C31.4732 37.955 31.7922 38.285 32.4082 38.285C32.9692 38.285 33.2882 37.955 33.2882 37.57C33.2882 36.459 30.7032 37.306 30.7032 35.425C30.7032 34.666 31.3632 33.995 32.3532 33.995C33.4092 33.995 34.0032 34.6 34.0582 35.48H33.2332C33.1782 35.04 32.9142 34.765 32.3532 34.765C31.8582 34.765 31.5282 35.084 31.5282 35.425C31.5282 36.536 34.1132 35.7 34.1132 37.57C34.1132 38.395 33.4532 39.055 32.4082 39.055C31.3082 39.055 30.6482 38.395 30.5932 37.515Z" fill="black"/>
<defs>
<clipPath id="clip0_49_274">
<rect width="24" height="24" fill="white" transform="translate(5.66669)"/>
</clipPath>
</defs>
</svg>
