<svg width="430" height="401" viewBox="0 0 430 401" fill="none" xmlns="http://www.w3.org/2000/svg">
<g clip-path="url(#clip0_16_111)">
<path d="M205.766 148.861C208.635 145.7 213.375 146.624 216.528 148.855C220.587 151.726 221.747 156.97 222.346 161.619C223.36 169.488 223.66 180.612 232.583 183.902C236.706 185.421 241.425 184.166 244.908 181.698C248.711 179.002 251.084 174.856 252.673 170.558C254.597 165.354 255.711 159.788 256.655 154.335C257.62 148.759 258.253 143.122 258.537 137.47C258.815 131.94 258.634 126.446 258.414 120.92C258.243 116.605 258.177 112.075 259.635 107.949C261.107 103.782 264.529 100.612 269.029 100.194C273.397 99.7883 277.896 101.63 281.056 104.603C288.639 111.736 288.996 123.381 290.691 132.945C291.581 137.97 292.883 143.054 295.611 147.426C297.856 151.022 300.974 154.036 304.567 156.272C311.812 160.783 321.045 162.099 329.085 159C336.935 155.975 343.253 149.361 345.987 141.411C346.663 139.448 347.08 137.42 347.291 135.357C347.39 134.397 345.889 134.404 345.791 135.357C344.892 144.126 339.263 152.068 331.549 156.227C323.612 160.507 314 159.964 306.245 155.527C302.433 153.346 299.116 150.269 296.812 146.517C294.017 141.967 292.821 136.664 291.95 131.456C290.378 122.051 289.664 111.253 282.616 104.032C277.149 98.4315 267.09 96.184 261.215 102.422C255.165 108.845 256.979 119.192 257.172 127.166C257.455 138.844 256.251 150.549 253.582 161.921C252.42 166.871 251.084 171.976 248.168 176.221C245.504 180.1 241.149 183.107 236.299 183.059C231.463 183.011 228.065 179.457 226.348 175.219C224.537 170.748 224.418 165.92 223.792 161.201C223.216 156.869 222.168 152.075 218.919 148.904C216.393 146.439 212.645 144.852 209.089 145.419C207.381 145.692 205.866 146.522 204.705 147.8C204.057 148.514 205.115 149.578 205.766 148.861Z" fill="#3398FF"/>
<path d="M422.54 309.225C421.696 307.802 418.043 309.326 417.372 308.034C416.702 306.747 420.096 304.785 422.035 300.304C422.385 299.496 424.588 294.404 422.957 292.833C419.865 289.854 405.717 302.145 400.766 298.123C399.679 297.24 398.92 295.478 395.632 292.617C394.324 291.479 393.532 290.965 392.767 291.156C391.68 291.428 391.594 292.881 390.429 295.74C388.682 300.028 387.649 299.769 386.631 303.189C385.876 305.728 386.048 307.205 385.159 307.492C383.901 307.899 382.743 305.206 381.148 305.447C379.521 305.693 378.537 308.829 378.226 311.177C377.643 315.583 379.261 318.491 380.158 321.548C381.133 324.87 381.711 329.923 379.461 337.075L357.183 399.842C362.102 386.962 376.342 351.656 382.326 338.536C384.053 334.749 385.96 330.907 389.877 329.391C393.647 327.931 398.825 328.803 405.427 327.212C406.198 327.027 408.337 326.482 408.607 325.224C408.829 324.183 407.571 323.603 407.764 322.628C408.024 321.321 410.498 321.305 413.54 319.797C415.684 318.734 417.02 317.47 418.169 316.382C418.515 316.054 423.664 311.12 422.54 309.225Z" fill="#F2F2F2"/>
<path d="M334.895 342.268C333.952 342.272 333.647 344.504 332.819 344.461C331.994 344.418 332.01 342.186 330.371 339.942C330.075 339.537 328.211 336.986 326.969 337.334C324.616 337.992 326.566 348.482 323.163 349.751C322.417 350.03 321.333 349.894 318.98 350.683C318.043 350.996 317.563 351.236 317.436 351.667C317.256 352.279 317.944 352.741 319.011 354.137C320.612 356.232 320.186 356.664 321.571 358.151C322.6 359.254 323.374 359.595 323.259 360.115C323.095 360.85 321.439 360.641 321.098 361.493C320.749 362.363 322.004 363.751 323.067 364.581C325.061 366.138 326.955 366.183 328.714 366.625C330.626 367.105 333.273 368.279 336.134 371.447L360.512 400.491C355.61 394.361 342.391 377.185 337.678 370.463C336.317 368.522 334.982 366.477 335.368 364.118C335.739 361.846 337.661 359.556 338.785 355.857C338.917 355.425 339.267 354.218 338.727 353.723C338.28 353.313 337.632 353.763 337.21 353.387C336.643 352.883 337.349 351.664 337.487 349.736C337.584 348.377 337.348 347.356 337.146 346.478C337.085 346.214 336.149 342.263 334.895 342.268Z" fill="#F2F2F2"/>
<path d="M353.694 346.488L353.127 341.42L353.386 341.036C354.586 339.259 355.198 337.524 355.206 335.877C355.207 335.615 355.195 335.353 355.182 335.087C355.133 334.029 355.072 332.715 355.757 331.183C356.142 330.329 357.221 328.352 358.843 328.597C359.28 328.658 359.611 328.858 359.861 329.093C359.898 329.035 359.936 328.976 359.976 328.912C360.482 328.141 360.882 327.811 361.267 327.493C361.563 327.248 361.869 326.996 362.349 326.399C362.559 326.137 362.723 325.907 362.862 325.714C363.281 325.129 363.83 324.431 364.796 324.444C365.829 324.493 366.37 325.347 366.728 325.912C367.368 326.92 367.658 327.647 367.85 328.129C367.92 328.305 368 328.504 368.04 328.565C368.373 329.054 371.078 328.597 372.097 328.43C374.387 328.048 376.368 327.718 377.184 329.162C377.769 330.195 377.335 331.56 375.854 333.329C375.393 333.88 374.902 334.299 374.466 334.627C374.827 334.842 375.15 335.172 375.281 335.691C375.59 336.92 374.534 338.15 372.144 339.355C371.551 339.656 370.751 340.057 369.632 340.25C369.105 340.341 368.63 340.363 368.224 340.375C368.215 340.61 368.16 340.864 368.017 341.126C367.597 341.897 366.723 342.264 365.407 342.176C363.958 342.1 362.765 341.824 361.713 341.581C360.794 341.371 360.002 341.192 359.381 341.234C358.228 341.327 357.34 342.25 356.297 343.446L353.694 346.488Z" fill="#F2F2F2"/>
<path d="M356.328 316.312L351.57 318.147L351.132 317.993C349.109 317.283 347.276 317.131 345.681 317.542C345.427 317.607 345.177 317.685 344.922 317.765C343.912 318.08 342.656 318.473 341.001 318.199C340.077 318.044 337.891 317.501 337.716 315.87C337.664 315.432 337.774 315.061 337.938 314.759C337.872 314.738 337.805 314.717 337.734 314.694C336.86 314.4 336.439 314.097 336.033 313.805C335.721 313.581 335.4 313.349 334.701 313.036C334.394 312.899 334.13 312.799 333.908 312.714C333.236 312.457 332.422 312.103 332.189 311.165C331.974 310.154 332.663 309.414 333.119 308.924C333.932 308.049 334.561 307.584 334.979 307.276C335.132 307.164 335.303 307.037 335.352 306.982C335.741 306.536 334.612 304.035 334.193 303.091C333.243 300.974 332.421 299.141 333.611 297.986C334.461 297.158 335.892 297.232 337.979 298.215C338.629 298.522 339.158 298.89 339.586 299.228C339.703 298.825 339.94 298.428 340.409 298.17C341.519 297.56 342.977 298.269 344.748 300.276C345.19 300.773 345.781 301.444 346.252 302.478C346.473 302.965 346.615 303.419 346.73 303.809C346.959 303.758 347.219 303.746 347.509 303.818C348.361 304.029 348.938 304.781 349.186 306.077C349.481 307.497 349.516 308.721 349.548 309.801C349.578 310.743 349.606 311.554 349.804 312.145C350.186 313.236 351.304 313.861 352.726 314.566L356.328 316.312Z" fill="#F2F2F2"/>
<path d="M353.694 301.381L353.127 296.313L353.386 295.929C354.586 294.152 355.198 292.417 355.206 290.77C355.207 290.508 355.195 290.246 355.182 289.98C355.133 288.922 355.072 287.608 355.757 286.076C356.142 285.222 357.221 283.245 358.843 283.49C359.28 283.551 359.611 283.751 359.861 283.986C359.898 283.928 359.936 283.869 359.976 283.805C360.482 283.034 360.882 282.704 361.267 282.386C361.563 282.141 361.869 281.889 362.349 281.292C362.559 281.03 362.723 280.8 362.862 280.607C363.281 280.022 363.83 279.324 364.796 279.337C365.829 279.386 366.37 280.24 366.728 280.805C367.368 281.813 367.658 282.54 367.85 283.022C367.92 283.198 368 283.397 368.04 283.458C368.373 283.947 371.078 283.49 372.097 283.323C374.387 282.941 376.368 282.611 377.184 284.055C377.769 285.088 377.335 286.453 375.854 288.223C375.393 288.773 374.902 289.192 374.466 289.52C374.827 289.735 375.15 290.065 375.281 290.584C375.59 291.813 374.534 293.044 372.144 294.248C371.551 294.549 370.751 294.95 369.632 295.143C369.105 295.234 368.63 295.256 368.224 295.268C368.215 295.503 368.16 295.758 368.017 296.019C367.597 296.79 366.723 297.157 365.407 297.069C363.958 296.993 362.765 296.717 361.713 296.475C360.794 296.264 360.002 296.085 359.381 296.127C358.228 296.22 357.34 297.143 356.297 298.339L353.694 301.381Z" fill="#F2F2F2"/>
<path d="M358.88 399.759L357.818 399.093L356.58 399.235C356.56 399.12 356.493 398.856 356.391 398.442C355.837 396.176 354.147 389.28 352.738 378.419C351.754 370.838 351.197 363.043 351.082 355.249C350.967 347.443 351.337 341.533 351.633 336.783C351.857 333.2 352.128 329.788 352.395 326.465C353.105 317.587 353.774 309.2 353.276 299.915C353.166 297.843 352.935 293.528 350.414 288.937C348.952 286.275 346.938 283.911 344.427 281.914L345.988 279.951C348.76 282.158 350.988 284.777 352.612 287.733C355.406 292.823 355.658 297.524 355.779 299.783C356.286 309.232 355.609 317.699 354.892 326.663C354.628 329.974 354.356 333.371 354.134 336.939C353.84 341.645 353.474 347.504 353.588 355.21C353.701 362.911 354.251 370.61 355.221 378.096C356.614 388.82 358.279 395.613 358.826 397.845C359.117 399.037 359.179 399.287 358.88 399.759Z" fill="#F2F2F2"/>
<path d="M339.831 285.895C339.728 285.895 339.624 285.893 339.519 285.885C337.385 285.77 335.409 284.493 333.645 282.09C332.817 280.959 332.394 279.67 331.55 277.098C331.419 276.701 330.782 274.69 330.396 271.922C330.143 270.113 330.174 269.357 330.533 268.689C330.931 267.945 331.574 267.426 332.299 267.076C332.267 266.836 332.292 266.589 332.396 266.337C332.823 265.292 333.959 265.429 334.573 265.495C334.884 265.535 335.272 265.586 335.69 265.564C336.349 265.532 336.702 265.336 337.238 265.043C337.751 264.761 338.388 264.411 339.334 264.218C341.199 263.829 342.762 264.357 343.277 264.531C345.987 265.434 347.323 267.541 348.87 269.981C349.178 270.47 350.237 272.252 350.935 274.694C351.439 276.456 351.368 277.239 351.217 277.822C350.908 279.019 350.18 279.704 348.331 281.216C346.401 282.8 345.431 283.592 344.599 284.075C342.662 285.193 341.446 285.895 339.831 285.895Z" fill="#F2F2F2"/>
<path d="M286.81 87.3355H252.59C251.727 87.3355 251.025 86.6335 251.025 85.7707C251.025 84.908 251.727 84.2064 252.59 84.2064H286.81C287.673 84.2064 288.375 84.908 288.375 85.7707C288.375 86.6335 287.673 87.3355 286.81 87.3355Z" fill="#E6E6E6"/>
<path d="M339.81 178.335H305.59C304.727 178.335 304.025 177.633 304.025 176.771C304.025 175.908 304.727 175.206 305.59 175.206H339.81C340.673 175.206 341.375 175.908 341.375 176.771C341.375 177.633 340.673 178.335 339.81 178.335Z" fill="#E6E6E6"/>
<path d="M367.81 240.335H333.59C332.727 240.335 332.025 239.633 332.025 238.771C332.025 237.908 332.727 237.206 333.59 237.206H367.81C368.673 237.206 369.375 237.908 369.375 238.771C369.375 239.633 368.673 240.335 367.81 240.335Z" fill="#E6E6E6"/>
<path d="M211.81 53.3355H177.59C176.727 53.3355 176.025 52.6335 176.025 51.7708C176.025 50.908 176.727 50.2064 177.59 50.2064H211.81C212.673 50.2064 213.375 50.908 213.375 51.7708C213.375 52.6335 212.673 53.3355 211.81 53.3355Z" fill="#E6E6E6"/>
<path d="M-47 398.594C-47 399.254 -46.47 399.784 -45.8099 399.784H476.48C477.14 399.784 477.67 399.254 477.67 398.594C477.67 397.934 477.14 397.404 476.48 397.404H-45.8099C-46.47 397.404 -47 397.934 -47 398.594Z" fill="#CCCCCC"/>
<path d="M350.248 222.18H195.148C194.596 222.18 194.148 221.732 194.148 221.18V73.1797C194.148 72.627 194.596 72.1797 195.148 72.1797C195.7 72.1797 196.148 72.627 196.148 73.1797V133.568C196.148 181.402 234.925 220.18 282.76 220.18H350.248C350.8 220.18 351.248 220.627 351.248 221.18C351.248 221.732 350.8 222.18 350.248 222.18Z" fill="#E6E6E6"/>
<path d="M227.81 162.699H193.59C192.727 162.699 192.025 161.997 192.025 161.134C192.025 160.272 192.727 159.57 193.59 159.57H227.81C228.673 159.57 229.375 160.272 229.375 161.134C229.375 161.997 228.673 162.699 227.81 162.699Z" fill="#E6E6E6"/>
<path d="M193.88 167.152C199.307 165.359 202.781 161.106 201.64 157.653C200.499 154.199 195.175 152.853 189.746 154.646C187.568 155.333 185.585 156.532 183.965 158.142L161.066 166.026L164.995 176.693L187.152 167.788C189.413 168.116 191.72 167.898 193.88 167.152Z" fill="#FFB6B6"/>
<path d="M76.1671 228.289C76.3524 234.001 79.45 238.536 83.0855 238.418C86.7209 238.299 89.5168 233.573 89.3307 227.858C89.2876 225.575 88.6983 223.334 87.612 221.325L86.5213 197.131L75.1786 197.885L77.4581 221.656C76.5042 223.732 76.0615 226.007 76.1671 228.289Z" fill="#FFB6B6"/>
<path d="M102.353 391.311L112.478 391.31L115.072 352L102.351 352.26L102.353 391.311Z" fill="#FFB6B6"/>
<path d="M137.041 391.082C137.356 391.613 137.523 393.326 137.523 393.944C137.523 395.841 135.984 397.38 134.086 397.38H102.732C101.438 397.38 100.388 396.33 100.388 395.036V393.73C100.388 393.73 98.8369 389.807 102.03 384.971C102.03 384.971 105.999 388.758 111.93 382.827L113.679 379.659L126.338 388.917L133.355 389.781C134.89 389.97 136.251 389.752 137.041 391.082Z" fill="#2F2E41"/>
<path d="M126.353 391.311L136.478 391.31L139.072 352L126.351 352.26L126.353 391.311Z" fill="#FFB6B6"/>
<path d="M161.041 391.082C161.356 391.613 161.523 393.326 161.523 393.944C161.523 395.841 159.984 397.38 158.086 397.38H126.732C125.438 397.38 124.388 396.33 124.388 395.036V393.73C124.388 393.73 122.837 389.807 126.03 384.971C126.03 384.971 129.999 388.758 135.93 382.827L137.679 379.659L150.338 388.917L157.355 389.781C158.89 389.97 160.251 389.752 161.041 391.082Z" fill="#2F2E41"/>
<path d="M108.245 98.5148C116.47 98.5148 123.138 91.8468 123.138 83.6215C123.138 75.3963 116.47 68.7283 108.245 68.7283C100.02 68.7283 93.3517 75.3963 93.3517 83.6215C93.3517 91.8468 100.02 98.5148 108.245 98.5148Z" fill="#FFB6B6"/>
<path d="M87.6382 207.5L94.6382 307.5L98.6382 374.5L117.638 373.5L115.638 300.5L119.638 255.5L125.638 373.5H140.76L146.638 208.5L114.138 204L87.6382 207.5Z" fill="#2F2E41"/>
<path d="M113.638 95.5C109.402 99.5775 99.613 96.8739 94.6382 95.5C91.8998 94.7438 90.2472 93.9644 89.6382 92.5C89.2148 91.4821 89.4554 90.5169 88.6382 88.5C88.1595 87.3186 87.9071 87.2305 87.6382 86.5C86.8885 84.4638 87.9298 82.6496 88.6382 80.5C90.1163 76.0148 88.3515 75.5111 89.6382 72.5C91.5725 67.9732 96.8343 66.1314 98.6382 65.5C102.006 64.3212 104.815 64.4458 105.638 64.5C110.914 64.8473 114.441 67.5543 115.638 68.5C118.066 70.417 119.257 72.4447 121.638 76.5C123.711 80.0289 123.862 81.3832 123.638 82.5C123.298 84.2018 122.316 84.2081 121.638 86.5C120.869 89.1016 121.744 90.4091 120.638 91.5C119.891 92.2374 119.196 91.9307 117.638 92.5C115.494 93.2836 114.436 94.7323 113.638 95.5Z" fill="#2F2E41"/>
<path d="M125.638 110.5C125.638 110.5 110.638 91.5 91.6382 98.5L85.4846 110.5L83.4287 112.446C74.8046 120.61 70.7921 132.52 72.7183 144.238L81.6382 198.5C81.6382 198.5 80.6382 219.5 87.6382 225.5C87.6382 225.5 97.6382 206.5 121.638 215.5C145.638 224.5 150.638 219.5 150.638 219.5L142.638 162.5L125.638 110.5Z" fill="#2F2E41"/>
<path d="M120.638 113.5L115.638 124.5L134.638 188.5L186.638 169.5L179.638 157.5L154.638 164.5C154.638 164.5 135.638 108.5 120.638 113.5Z" fill="#2F2E41"/>
<path d="M85.1382 214H74.1382L72.1382 134L85.1382 161V214Z" fill="#2F2E41"/>
<path d="M205.638 153C208.123 153 210.138 150.985 210.138 148.5C210.138 146.015 208.123 144 205.638 144C203.153 144 201.138 146.015 201.138 148.5C201.138 150.985 203.153 153 205.638 153Z" fill="#3F3D56"/>
<path d="M235.638 188C238.123 188 240.138 185.985 240.138 183.5C240.138 181.015 238.123 179 235.638 179C233.153 179 231.138 181.015 231.138 183.5C231.138 185.985 233.153 188 235.638 188Z" fill="#3F3D56"/>
<path d="M269.638 104C272.123 104 274.138 101.985 274.138 99.5C274.138 97.0147 272.123 95 269.638 95C267.153 95 265.138 97.0147 265.138 99.5C265.138 101.985 267.153 104 269.638 104Z" fill="#3F3D56"/>
<path d="M319.638 164C322.123 164 324.138 161.985 324.138 159.5C324.138 157.015 322.123 155 319.638 155C317.153 155 315.138 157.015 315.138 159.5C315.138 161.985 317.153 164 319.638 164Z" fill="#3F3D56"/>
<path d="M348.638 140C351.123 140 353.138 137.985 353.138 135.5C353.138 133.015 351.123 131 348.638 131C346.153 131 344.138 133.015 344.138 135.5C344.138 137.985 346.153 140 348.638 140Z" fill="#3F3D56"/>
<path d="M340.065 40.024L348.295 43.9225C344.92 39.2117 342.011 31.8545 340.454 26C337.817 31.4535 333.567 38.1261 329.36 42.112L338.058 39.8743C332.698 66.1422 312.539 85 289.454 85L289.127 85.9488C313.24 85.9488 334.593 67.3524 340.065 40.024Z" fill="#3F3D56"/>
<path d="M315.186 0H367.186C369.392 0 371.186 1.79443 371.186 4C371.186 6.20557 369.392 8 367.186 8H315.186C312.98 8 311.186 6.20557 311.186 4C311.186 1.79443 312.98 0 315.186 0Z" fill="#3398FF"/>
<path d="M350.316 230.364C349.768 230.364 349.215 230.242 348.688 229.995C347.389 229.385 346.573 228.164 346.506 226.73L345.967 215.104C345.898 213.611 346.677 212.254 348.001 211.561C349.325 210.867 350.886 211.002 352.073 211.908L359.991 217.964C360.943 218.691 361.487 219.797 361.483 220.994C361.479 222.193 360.929 223.294 359.972 224.017L352.593 229.588C351.912 230.102 351.12 230.364 350.316 230.364Z" fill="#E6E6E6"/>
<path d="M204.345 74.1491C204.345 74.6975 204.223 75.2507 203.976 75.7776C203.365 77.0769 202.144 77.8928 200.711 77.9592L189.085 78.4983C187.592 78.5676 186.234 77.7883 185.541 76.4641C184.848 75.1403 184.982 73.5798 185.889 72.3928L191.944 64.4748C192.672 63.5227 193.777 62.9787 194.975 62.9826C196.174 62.986 197.274 63.5368 197.997 64.4934L203.568 71.8723C204.082 72.5534 204.345 73.3459 204.345 74.1491Z" fill="#E6E6E6"/>
<path d="M269.269 63.8527C263.349 62.4346 257.023 63.7181 251.963 67.0611C246.656 70.5667 243.142 76.1801 241.953 82.399C239.5 95.2292 246.996 108.046 258.843 113.153C271.297 118.521 286.113 114.919 295.158 104.956C299.64 100.018 302.442 93.7702 303.286 87.1636C304.117 80.6552 303.169 73.1461 299.228 67.7142C295.319 62.3262 288.809 60.5181 282.523 59.6351C276.423 58.7784 268.331 58.406 265.033 64.8624C264.404 66.0934 264.108 67.4199 264.178 68.8005C264.227 69.7611 265.727 69.7669 265.678 68.8005C265.526 65.7818 267.538 63.2594 270.118 61.9027C273.108 60.3303 276.714 60.4635 279.974 60.8139C285.86 61.4466 292.543 62.5753 296.788 67.0961C301.016 71.5995 302.284 78.4621 302.021 84.44C301.747 90.6795 299.598 96.8208 295.831 101.811C288.397 111.658 275.391 116.343 263.426 113.162C251.767 110.062 251.615 103.144 251.808 90.8912C251.91 84.3547 245.736 74.0661 250.777 69.8065C255.713 65.636 262.553 63.786 268.87 65.2991C269.808 65.5239 270.209 64.0779 269.269 63.8527Z" fill="#3398FF"/>
</g>
<defs>
<clipPath id="clip0_16_111">
<rect width="524.67" height="400.491" fill="white" transform="translate(-47)"/>
</clipPath>
</defs>
</svg>
