<svg width="51" height="49" viewBox="0 0 51 49" fill="none" xmlns="http://www.w3.org/2000/svg">
<path d="M24.7621 4.09685V5.22507M22.2302 11.7825C22.7811 12.7695 23.8352 13.1367 24.5926 13.1367C25.35 13.1367 27.0697 12.8383 27.0697 11.0957C27.0697 9.35303 24.8504 9.19236 24.8504 9.19236L24.6491 9.16941C24.6491 9.16941 22.375 9.00874 22.375 7.26609C22.375 5.52345 24.0947 5.22507 24.8521 5.22507C25.4613 5.2286 26.2734 5.43517 26.8243 6.42214M29.5945 14.6728C31.2966 13.255 32.3806 11.1186 32.3806 8.72977C32.3806 4.46057 28.9201 1 24.6509 1C20.3817 1 16.9211 4.46057 16.9211 8.72977C16.9211 10.8503 17.7756 12.7712 19.1581 14.1678M34.3899 15.3772C39.4377 18.0097 42.7394 22.3743 42.7394 27.3127C42.7394 31.9014 39.8897 35.9923 35.4369 38.6601L37.2696 47.0591H30.5391L30.1542 44.9545M11.8697 39.1722C8.50803 37.3854 5.93732 34.8235 4.62902 31.8379C4.46129 31.4547 4.08521 31.2076 3.66677 31.2076H2.06361C1.67871 31.2076 1.35031 30.9268 1.29028 30.5455L1.00955 24.2599C0.935393 23.785 1.30264 23.3577 1.78288 23.3577H3.69502C4.10817 23.3577 4.48424 23.1158 4.65197 22.7362C5.48533 20.8594 6.81835 19.1521 8.53098 17.7008C8.01543 15.8292 6.1439 13.232 4.99449 12.2645C8.86644 10.3965 11.7302 10.8944 13.5947 12.2557M29.5168 41.0931C27.5358 41.5963 25.4118 41.87 23.2031 41.87C21.3333 41.87 19.5236 41.674 17.8109 41.3085L16.824 47.6717H10.0935L10.9057 43.4979M17.4137 18.3011C23.3355 16.3554 31.6444 17.5842 35.8694 22.4891M45.7921 22.708C47.7078 22.4961 49.4327 23.8768 49.6446 25.7925C49.8565 27.7081 48.4758 29.4331 46.5601 29.645C44.6445 29.8569 42.923 28.425 42.7111 26.5111M10.3566 23.3577H11.8238" stroke="#00661F" stroke-width="2" stroke-linecap="round" stroke-linejoin="round"/>
</svg>
