<svg width="192" height="192" viewBox="0 0 32 26" fill="none" xmlns="http://www.w3.org/2000/svg">
<path d="M13.7926 14.8823C17.6643 11.2331 23.4216 11.9826 26.6517 16.5563L30.4554 21.7196C26.5836 25.3687 20.8264 24.6193 17.5963 20.0455L13.7926 14.8823Z" fill="#3398FF"/>
<path d="M18.2075 10.4583C14.3357 14.1075 8.5785 13.358 5.34836 8.78426L1.54471 3.62102C5.41645 -0.028174 11.1737 0.721313 14.4038 5.29504L18.2075 10.4583Z" fill="#3398FF"/>
<path d="M0.139319 14.6263C4.01107 10.9771 9.76828 11.7266 12.9984 16.3003L17.2759 22.2262C13.4041 25.8754 7.64692 25.1259 4.41677 20.5522L0.139319 14.6263Z" fill="#3398FF"/>
<path d="M31.8607 10.7143C27.9889 14.3635 22.2317 13.614 19.0016 9.04028L14.7241 3.11433C18.5959 -0.534858 24.3531 0.214628 27.5832 4.78835L31.8607 10.7143Z" fill="#3398FF"/>
<ellipse cx="27.6735" cy="18.8851" rx="4.03228" ry="4.03228" transform="rotate(175.835 27.6735 18.8851)" fill="#3398FF"/>
<ellipse cx="4.3265" cy="6.45541" rx="4.03228" ry="4.03228" transform="rotate(-4.16482 4.3265 6.45541)" fill="#3398FF"/>
</svg>
